<svg xmlns="http://www.w3.org/2000/svg" viewBox="0 0 24 24" width="24" height="24" fill="#ffffff">
  <path d="M12 0C5.37 0 0 5.37 0 12c0 5.3 3.438 9.8 8.205 11.387.6.11.82-.26.82-.577 
    0-.285-.01-1.04-.015-2.04-3.338.724-4.042-1.61-4.042-1.61-.546-1.387-1.333-1.756-1.333-1.756-1.09-.745.082-.73.082-.73 
    1.205.085 1.84 1.237 1.84 1.237 1.07 1.834 2.807 1.304 3.492.997.108-.775.418-1.305.76-1.605-2.665-.3-5.467-1.332-5.467-5.932 
    0-1.31.467-2.38 1.235-3.22-.123-.303-.535-1.523.117-3.176 0 0 1.008-.322 3.3 1.23a11.49 11.49 0 013.003-.404c1.02.005 2.045.138 3.003.404 
    2.29-1.552 3.296-1.23 3.296-1.23.653 1.653.242 2.873.12 3.176.77.84 1.234 1.91 1.234 3.22 
    0 4.61-2.807 5.628-5.48 5.922.43.37.823 1.096.823 2.21 0 1.594-.015 2.877-.015 3.27 
    0 .32.216.694.825.576C20.565 21.796 24 17.297 24 12c0-6.63-5.37-12-12-12z"/>
</svg>
